<svg xmlns="http://www.w3.org/2000/svg" width="1200" height="630" viewBox="0 0 1200 630" role="img" aria-label="web3stronghold — secure creator treasury on Solana">
  <defs>
    <linearGradient id="og-bg" x1="0" y1="0" x2="1" y2="1">
      <stop offset="0%" stop-color="#06080c" />
      <stop offset="45%" stop-color="#0c1018" />
      <stop offset="100%" stop-color="#121a24" />
    </linearGradient>
    <linearGradient id="og-card" x1="0" y1="0" x2="1" y2="1">
      <stop stop-color="#3d7fd4" />
      <stop offset="0.5" stop-color="#2d6bb8" />
      <stop offset="1" stop-color="#15365c" />
    </linearGradient>
    <filter id="og-glow" x="-50%" y="-50%" width="200%" height="200%">
      <feGaussianBlur stdDeviation="5" result="b" />
      <feMerge>
        <feMergeNode in="b" />
        <feMergeNode in="SourceGraphic" />
      </feMerge>
    </filter>
  </defs>
  <rect width="1200" height="630" fill="url(#og-bg)" />
  <circle cx="1020" cy="120" r="180" fill="#3d7fd4" opacity="0.06" />
  <circle cx="140" cy="520" r="220" fill="#5ecf9a" opacity="0.04" />
  <rect x="96" y="186" width="88" height="88" rx="20" fill="url(#og-card)" />
  <!-- Vault door (scaled) -->
  <rect
    x="108"
    y="198"
    width="64"
    height="64"
    rx="11"
    fill="rgba(4,12,24,0.55)"
    stroke="rgba(255,255,255,0.16)"
    stroke-width="1.5"
  />
  <circle cx="114" cy="208" r="2" fill="rgba(255,255,255,0.24)" />
  <circle cx="114" cy="230" r="2" fill="rgba(255,255,255,0.24)" />
  <circle cx="114" cy="252" r="2" fill="rgba(255,255,255,0.24)" />
  <circle cx="166" cy="208" r="2" fill="rgba(255,255,255,0.24)" />
  <circle cx="166" cy="230" r="2" fill="rgba(255,255,255,0.24)" />
  <circle cx="166" cy="252" r="2" fill="rgba(255,255,255,0.24)" />
  <path
    d="M116 224h48M116 230h48M116 236h48"
    fill="none"
    stroke="rgba(0,0,0,0.45)"
    stroke-width="3.2"
    stroke-linecap="round"
  />
  <circle
    cx="140"
    cy="230"
    r="13"
    stroke="rgba(255,255,255,0.28)"
    stroke-width="2.2"
    fill="rgba(0,0,0,0.22)"
  />
  <circle cx="140" cy="230" r="5.5" stroke="rgba(255,255,255,0.14)" stroke-width="1.2" fill="none" />
  <path d="M150 230h10" stroke="rgba(255,255,255,0.32)" stroke-width="2.4" stroke-linecap="round" />
  <circle cx="168" cy="254" r="7" fill="#5ee0c8" filter="url(#og-glow)" />
  <circle cx="168" cy="254" r="2.8" fill="#e8fffa" opacity="0.55" />
  <text x="210" y="268" fill="#e9eef5" font-family="system-ui, Segoe UI, sans-serif" font-size="56" font-weight="700" letter-spacing="-0.03em">
    web3stronghold
  </text>
  <text
    x="210"
    y="328"
    fill="#8b9cb0"
    font-family="system-ui, Segoe UI, sans-serif"
    font-size="28"
    font-weight="500"
  >
    Secure creator treasury on Solana
  </text>
  <text
    x="96"
    y="520"
    fill="#5a6a7e"
    font-family="ui-monospace, monospace"
    font-size="20"
  >
    web3stronghold.app
  </text>
</svg>
