<svg xmlns="http://www.w3.org/2000/svg" width="400" height="400" viewBox="0 0 400 400" role="img" aria-label="web3stronghold profile">
  <defs>
    <linearGradient id="p400-bg" x1="50" y1="25" x2="375" y2="387" gradientUnits="userSpaceOnUse">
      <stop stop-color="#3d7fd4" />
      <stop offset="0.5" stop-color="#2d6bb8" />
      <stop offset="1" stop-color="#15365c" />
    </linearGradient>
    <filter id="p400-glow" x="-45%" y="-45%" width="190%" height="190%">
      <feGaussianBlur stdDeviation="4.5" result="b" />
      <feMerge>
        <feMergeNode in="b" />
        <feMergeNode in="SourceGraphic" />
      </feMerge>
    </filter>
  </defs>
  <rect width="400" height="400" rx="90" fill="url(#p400-bg)" />
  <rect
    x="80"
    y="65"
    width="240"
    height="270"
    rx="45"
    fill="rgba(4, 12, 24, 0.55)"
    stroke="rgba(255,255,255,0.14)"
    stroke-width="8.5"
  />
  <circle cx="110" cy="105" r="9" fill="rgba(255,255,255,0.22)" />
  <circle cx="110" cy="200" r="9" fill="rgba(255,255,255,0.22)" />
  <circle cx="110" cy="295" r="9" fill="rgba(255,255,255,0.22)" />
  <circle cx="290" cy="105" r="9" fill="rgba(255,255,255,0.22)" />
  <circle cx="290" cy="200" r="9" fill="rgba(255,255,255,0.22)" />
  <circle cx="290" cy="295" r="9" fill="rgba(255,255,255,0.22)" />
  <path
    d="M125 165h150M125 200h150M125 235h150"
    stroke="rgba(0,0,0,0.5)"
    stroke-width="13"
    stroke-linecap="round"
  />
  <path
    d="M125 165h150M125 200h150M125 235h150"
    stroke="rgba(255,255,255,0.1)"
    stroke-width="5"
    stroke-linecap="round"
    transform="translate(-2 -2)"
  />
  <circle
    cx="200"
    cy="200"
    r="48"
    stroke="rgba(255,255,255,0.28)"
    stroke-width="10"
    fill="rgba(0,0,0,0.2)"
  />
  <circle cx="200" cy="200" r="21" stroke="rgba(255,255,255,0.14)" stroke-width="5.5" fill="none" />
  <path
    d="M232 200h26"
    stroke="rgba(255,255,255,0.3)"
    stroke-width="11"
    stroke-linecap="round"
  />
  <circle cx="305" cy="295" r="30" fill="#5ee0c8" fill-opacity="0.95" filter="url(#p400-glow)" />
  <circle cx="305" cy="295" r="12" fill="#e8fffa" fill-opacity="0.55" />
</svg>
